# xmcd
#
# Track frame offsets: 
#        150
#        18500
#        32689
#        48257
#        67815
#        80624
#        96310
#        115793
#        132127
#        166114
#        189763
#        201094
#        214025
#
# Disc length: 3019 seconds
#
# Revision: 0
# Processed by: cddbd v1.5.2PL0 Copyright (c) Steve Scherf et al.
# Submitted via: ExactAudioCopy v0.99pb5
#
DISCID=a10bc90d
DTITLE=Al Wood and The Woodsmen - Mood Swingin' Blues
DYEAR=2008
DGENRE=
TTITLE0=Late Night Stroll
TTITLE1=Firefly
TTITLE2=Highway 17
TTITLE3=Parting Glass
TTITLE4=Diggin' Down Deep
TTITLE5=Treena Ballerina
TTITLE6=The Pasture
TTITLE7=Feeble-Minded Woman
TTITLE8=Blame Shiftin' Blues
TTITLE9=Passenger Freight Train
TTITLE10=Rollin' (Fade Away)
TTITLE11=(Enter) Jazz Thief (Exit) You
TTITLE12=Shake
EXTD=
EXTT0=
EXTT1=
EXTT2=
EXTT3=
EXTT4=
EXTT5=
EXTT6=
EXTT7=
EXTT8=
EXTT9=
EXTT10=
EXTT11=
EXTT12=
PLAYORDER=
